<svg xmlns="http://www.w3.org/2000/svg" viewBox="0 0 512 512">
    <path id="background" style="fill: #ced4da;" d="M0 0 L512 0 L512 512 L0 512"/>
    <!-- Font Awesome Free 5.15.4 by
    @fontawesome - https://fontawesome.com License - https://fontawesome.com/license/free (Icons: CC
    BY 4.0, Fonts: SIL OFL 1.1, Code: MIT License) -->
    <path id="icon" style="fill: #212529; transform: scale(0.67); transform-origin: center"
        d="M512 76v360c0 6.6-5.4 12-12 12h-40c-6.6 0-12-5.4-12-12V284.1L276.5 440.6c-20.6 17.2-52.5 2.8-52.5-24.6V284.1L52.5 440.6C31.9 457.8 0 443.4 0 416V96c0-27.4 31.9-41.7 52.5-24.6L224 226.8V96c0-27.4 31.9-41.7 52.5-24.6L448 226.8V76c0-6.6 5.4-12 12-12h40c6.6 0 12 5.4 12 12z" />
</svg>
